Coordinates
version=1
nRows=6
nColumns=63
inDegrees=yes

Units are S.I. units (second, meters, Newtons, ...)
If the header above contains a line with 'inDegrees', this indicates whether rotational values are in degrees (yes) or radians (no).

endheader
time	pelvis_tilt	pelvis_list	pelvis_rotation	pelvis_tx	pelvis_ty	pelvis_tz	hip_flexion_r	hip_adduction_r	hip_rotation_r	knee_angle_r	knee_angle_r_beta	ankle_angle_r	subtalar_angle_r	mtp_angle_r	hip_flexion_l	hip_adduction_l	hip_rotation_l	knee_angle_l	knee_angle_l_beta	ankle_angle_l	subtalar_angle_l	mtp_angle_l	L5_S1_Flex_Ext	L5_S1_Lat_Bending	L5_S1_axial_rotation	L4_L5_Flex_Ext	L4_L5_Lat_Bending	L4_L5_axial_rotation	L3_L4_Flex_Ext	L3_L4_Lat_Bending	L3_L4_axial_rotation	L2_L3_Flex_Ext	L2_L3_Lat_Bending	L2_L3_axial_rotation	L1_L2_Flex_Ext	L1_L2_Lat_Bending	L1_L2_axial_rotation	L1_T12_Flex_Ext	L1_T12_Lat_Bending	L1_T12_axial_rotation	Abs_r3	Abs_r2	Abs_r1	Abs_t1	Abs_t2	neck_flexion	neck_bending	neck_rotation	arm_flex_r	arm_add_r	arm_rot_r	elbow_flex_r	pro_sup_r	wrist_flex_r	wrist_dev_r	arm_flex_l	arm_add_l	arm_rot_l	elbow_flex_l	pro_sup_l	wrist_flex_l	wrist_dev_l
      2.38461538	      1.15290205	      1.39722823	     93.69087051	      0.27010951	      0.99979651	      0.56596494	     -4.59566494	     -1.42363054	    -23.00039936	      8.83614051	      0.15421975	     35.21910820	     17.19460148	      0.00000000	     -3.65211262	      0.83510737	     25.23793246	      5.40948066	      0.09441325	     29.52496750	    -16.00480302	      0.00000000	     -0.02607732	      1.81678135	      0.39808788	     -0.04842819	      2.41631919	      0.42296837	     -0.04284243	      4.41732217	      0.42296837	     -0.02980377	      4.41732217	      0.34832689	     -0.02421540	      3.70478053	      0.32344640	     -0.01490058	      2.81419431	      0.29856591	     -0.18626769	     20.55179397	      2.21404533	      0.00000000	      0.00000000	     28.07679583	     -2.47983279	     39.35837338	     -3.26489235	    -25.22545350	    103.17735609	      8.05842174	      4.07950244	     -7.51176867	     -8.37703655	    188.22231877	    -38.09296683	    150.01398880	     38.43338517	     27.31974389	      7.82408238	    -16.84994562
      2.40384615	      0.89626150	      1.86384171	     94.15700637	      0.27038199	      0.99987491	      0.56444940	     -5.40123862	     -1.49457370	    -23.39345547	      8.59921850	      0.15008468	     35.10495867	     16.81370734	      0.00000000	     -4.33328305	      0.96540770	     25.60089241	      5.22840627	      0.09125290	     29.45691883	    -15.82582697	      0.00000000	     -0.03467096	      1.80401320	      0.44061728	     -0.06438744	      2.39933756	      0.46815586	     -0.05696092	      4.38627770	      0.46815586	     -0.03962544	      4.38627770	      0.38554012	     -0.03219546	      3.67874372	      0.35800154	     -0.01981099	      2.79441645	      0.33046296	     -0.24765122	     20.40735815	      2.45058114	      0.00000000	      0.00000000	     28.10285414	     -2.35300508	     39.60529249	     -4.28453948	    -25.09926075	    102.93350377	      7.80309417	      3.85313592	     -7.82862348	     -8.58365157	    186.61328046	    -37.43086459	    150.85224916	     37.35882413	     27.24461056	      7.16909838	    -16.57768729
      2.42307692	      0.43219309	      2.43369980	     94.72421014	      0.27067438	      0.99986267	      0.56320989	     -6.36225503	     -1.72674149	    -23.91637679	      8.30959068	      0.14502972	     34.97160409	     16.35560848	      0.00000000	     -5.11583829	      1.29400629	     26.38532065	      5.04244608	      0.08800729	     29.28989418	    -16.08386579	      0.00000000	     -0.05699767	      1.75382086	      0.52251400	     -0.10585038	      2.33258175	      0.55517112	     -0.09364148	      4.26424005	      0.55517112	     -0.06514264	      4.26424005	      0.45719975	     -0.05292804	      3.57639151	      0.42454262	     -0.03256847	      2.71666852	      0.39188550	     -0.40712868	     19.83957237	      2.90606609	      0.00000000	      0.00000000	     28.13638641	     -2.61166830	     38.43376626	     -5.27940913	    -24.78403489	    102.04578841	      7.74425881	      3.84772249	     -8.14813622	     -8.44316961	    183.64489610	    -36.35229115	    151.23826693	     34.81589686	     25.92495193	      5.66052692	    -18.87414024
      2.44230769	      0.01170735	      2.94343745	     95.12731018	      0.27109402	      0.99977656	      0.56228840	     -7.18868679	     -1.94115874	    -24.28379464	      8.08505702	      0.14111087	     34.86440392	     15.94719433	      0.00000000	     -5.72771820	      1.61755991	     26.73966501	      5.05536528	      0.08823277	     29.33153239	    -16.06577341	      0.00000000	     -0.08091183	      1.70879124	      0.60872148	     -0.15026135	      2.27269235	      0.64676658	     -0.13293004	      4.15475503	      0.64676658	     -0.09247413	      4.15475503	      0.53263130	     -0.07513472	      3.48456710	      0.49458620	     -0.04623302	      2.64691764	      0.45654111	     -0.57794509	     19.33018831	      3.38552627	      0.00000000	      0.00000000	     28.14496701	     -2.98227809	     37.48789226	     -6.04067577	    -24.45842499	    101.78008881	      7.62565202	      4.08380685	     -8.34923122	     -8.06141325	    180.19419513	    -35.52149222	    149.80392569	     31.55065486	     24.03587797	      5.03330319	    -20.63608862
      2.46153846	      0.01632240	      3.98773543	     95.13492969	      0.27057080	      1.00106508	      0.56390595	     -8.22033550	     -1.85271108	    -24.35500135	      8.09345244	      0.14125739	     34.53993012	     15.67106550	      0.00000000	     -6.56096061	      1.64100253	     26.43488207	      5.45395716	      0.09518951	     29.53786060	    -15.91258245	      0.00000000	     -0.17268193	      1.73243695	      1.02814429	     -0.32068761	      2.30414114	      1.09240331	     -0.28369914	      4.21224720	      1.09240331	     -0.19735818	      4.21224720	      0.89962625	     -0.16035244	      3.53278542	      0.83536723	     -0.09867045	      2.68354483	      0.77110822	     -1.23344976	     19.59767324	      5.71823009	      0.00000000	      0.00000000	     28.11922087	     -4.82013616	     34.08535877	     -7.45592357	    -24.35378206	     99.58207659	      7.57202498	      4.24750891	     -8.38883226	     -7.94394087	    162.36782237	    -34.41961318	     75.75797682	     14.25698299	     78.35996753	     32.17653701	    -15.38538666
      2.48076923	     -0.04316390	      4.28610579	     95.10699841	      0.27042267	      1.00124922	      0.56382233	     -8.52738519	     -1.88399368	    -24.31184329	      8.09309446	      0.14125114	     34.55638603	     15.51390457	      0.00000000	     -6.70090330	      1.76551652	     26.08926779	      5.82580981	      0.10167956	     29.82620349	    -15.64661442	      0.00000000	     -0.18678585	      1.73438445	      1.10748473	     -0.34688001	      2.30673132	      1.17670253	     -0.30687048	      4.21698236	      1.17670253	     -0.21347755	      4.21698236	      0.96904914	     -0.17344934	      3.53675678	      0.89983135	     -0.10672944	      2.68656152	      0.83061355	     -1.33419268	     19.61970380	      6.15949784	      0.00000000	      0.00000000	     28.10640958	     -5.22852936	     32.97324730	     -7.81538782	    -24.35246126	     99.55844931	      7.59411003	      4.25731666	     -8.33692312	     -7.76960987	    160.35373809	    -32.85214408	     70.40883754	     11.46860467	     74.94893864	     31.97656647	    -17.84069393
